<?xml version="1.0" encoding="UTF-8"?>
<svg id="Layer_2" xmlns="http://www.w3.org/2000/svg" viewBox="0 0 1013.38 1023.34">
  <defs>
    <style>
      .cls-1 {
        fill: #f36c21;
        fill-rule: evenodd;
      }
    </style>
  </defs>
  <g id="Icon">
    <path id="Internal" class="cls-1" d="M587.6,916.86c-248.46,0-449.88-201.42-449.88-449.88S339.14,17.11,587.6,17.11c27.31,0,54.04,2.43,80.01,7.1C618.44,8.49,566.05,0,511.67,0,229.08,0,0,229.08,0,511.67s229.08,511.67,511.67,511.67c248.03,0,454.84-176.49,501.71-410.73-60.52,176.99-228.28,304.25-425.78,304.25Z"/>
    <path id="External" class="cls-1" d="M977.51,404.58c-2.82,150.23-125.47,271.16-276.38,271.16s-276.44-123.77-276.44-276.44,123.77-276.44,276.44-276.44c42.66,0,83.06,9.67,119.13,26.93-57.14-38.22-125.84-60.52-199.74-60.52-198.66,0-359.71,161.05-359.71,359.7s161.05,359.7,359.71,359.7,359.7-161.05,359.7-359.7c0-15.03-.93-29.84-2.72-44.38Z"/>
  </g>
</svg>